<svg xmlns="http://www.w3.org/2000/svg" xmlns:xlink="http://www.w3.org/1999/xlink" width="500" zoomAndPan="magnify" viewBox="0 0 375 374.999991" height="500" preserveAspectRatio="xMidYMid meet" version="1.0"><rect x="-37.5" width="450" fill="#ffffff" y="-37.499999" height="449.999989" fill-opacity="1"/><rect x="-37.5" width="450" fill="#ffffff" y="-37.499999" height="449.999989" fill-opacity="1"/><path fill="#35a8f6" d="M 215.023438 150.710938 C 139.308594 119.664062 90.882812 230.191406 163.3125 275.847656 C 116.90625 256.054688 102.707031 186.539062 149.03125 153.292969 C 89.398438 154.816406 70.367188 228.289062 88.824219 274.925781 C 39.652344 181.964844 136.128906 92.078125 235.453125 155.464844 C 216.59375 129.125 185.734375 111.957031 150.867188 111.957031 C 107.480469 111.957031 70.300781 138.535156 54.722656 176.292969 C 55.167969 171.09375 55.917969 165.882812 56.996094 160.679688 C 58.242188 154.632812 59.933594 148.597656 62.074219 142.621094 C 86.867188 73.335938 163.132812 37.269531 232.417969 62.070312 C 301.699219 86.863281 337.765625 163.128906 312.96875 232.414062 C 309.628906 241.746094 305.351562 250.476562 300.289062 258.535156 C 221.570312 284.84375 174.023438 247.625 174.023438 247.625 C 205.582031 293.105469 276.585938 274.675781 292.003906 270.253906 C 250.238281 290.457031 178.832031 285.277344 159.835938 235.898438 C 143.722656 194.003906 171.78125 139.285156 215.027344 150.707031 Z M 320.890625 235.25 C 347.253906 161.589844 308.910156 80.503906 235.246094 54.144531 C 161.585938 27.78125 80.5 66.125 54.140625 139.785156 C 27.777344 213.449219 66.121094 294.53125 139.78125 320.894531 C 213.445312 347.257812 294.527344 308.914062 320.890625 235.25 Z M 320.890625 235.25 " fill-opacity="1" fill-rule="evenodd"/></svg>